<mxfile host="Electron" modified="2023-06-20T16:13:48.753Z" agent="Mozilla/5.0 (Windows NT 10.0; Win64; x64) AppleWebKit/537.36 (KHTML, like Gecko) draw.io/21.2.8 Chrome/112.0.5615.165 Electron/24.2.0 Safari/537.36" etag="BPDl5C4kgNZ8gJBHS6Ad" version="21.2.8" type="device">
  <diagram id="C5RBs43oDa-KdzZeNtuy" name="Page-1">
    <mxGraphModel dx="1488" dy="745" grid="1" gridSize="10" guides="1" tooltips="1" connect="1" arrows="1" fold="1" page="1" pageScale="1" pageWidth="827" pageHeight="1169" background="#fffff5" math="0" shadow="1">
      <root>
        <mxCell id="WIyWlLk6GJQsqaUBKTNV-0" />
        <mxCell id="WIyWlLk6GJQsqaUBKTNV-1" parent="WIyWlLk6GJQsqaUBKTNV-0" />
        <mxCell id="WIyWlLk6GJQsqaUBKTNV-4" value="完整的手机号码" style="rounded=0;html=1;jettySize=auto;orthogonalLoop=1;fontSize=11;endArrow=block;endFill=0;endSize=8;strokeWidth=1;shadow=0;labelBackgroundColor=none;edgeStyle=orthogonalEdgeStyle;entryX=0.5;entryY=0;entryDx=0;entryDy=0;" parent="WIyWlLk6GJQsqaUBKTNV-1" source="WIyWlLk6GJQsqaUBKTNV-6" target="QD-HZkgpxTLvtGoNFFKM-11" edge="1">
          <mxGeometry x="-0.2547" y="42" relative="1" as="geometry">
            <mxPoint as="offset" />
            <mxPoint x="270" y="610" as="targetPoint" />
          </mxGeometry>
        </mxCell>
        <mxCell id="WIyWlLk6GJQsqaUBKTNV-5" value="不完整，但是具备网络识别号" style="edgeStyle=orthogonalEdgeStyle;rounded=0;html=1;jettySize=auto;orthogonalLoop=1;fontSize=11;endArrow=block;endFill=0;endSize=8;strokeWidth=1;shadow=0;labelBackgroundColor=none;" parent="WIyWlLk6GJQsqaUBKTNV-1" source="WIyWlLk6GJQsqaUBKTNV-6" target="WIyWlLk6GJQsqaUBKTNV-7" edge="1">
          <mxGeometry y="10" relative="1" as="geometry">
            <mxPoint as="offset" />
          </mxGeometry>
        </mxCell>
        <mxCell id="WIyWlLk6GJQsqaUBKTNV-6" value="判断字符串状态" style="rhombus;whiteSpace=wrap;html=1;shadow=0;fontFamily=Helvetica;fontSize=12;align=center;strokeWidth=1;spacing=6;spacingTop=-4;" parent="WIyWlLk6GJQsqaUBKTNV-1" vertex="1">
          <mxGeometry x="290" y="380" width="115" height="110" as="geometry" />
        </mxCell>
        <mxCell id="QD-HZkgpxTLvtGoNFFKM-13" style="edgeStyle=none;curved=1;rounded=0;orthogonalLoop=1;jettySize=auto;html=1;exitX=0.5;exitY=1;exitDx=0;exitDy=0;entryX=0.5;entryY=0;entryDx=0;entryDy=0;endArrow=block;startSize=14;endSize=8;sourcePerimeterSpacing=8;targetPerimeterSpacing=8;labelBackgroundColor=none;endFill=0;strokeWidth=1;shadow=0;" parent="WIyWlLk6GJQsqaUBKTNV-1" source="WIyWlLk6GJQsqaUBKTNV-7" target="QD-HZkgpxTLvtGoNFFKM-12" edge="1">
          <mxGeometry relative="1" as="geometry" />
        </mxCell>
        <mxCell id="WIyWlLk6GJQsqaUBKTNV-7" value="提取网络识别号" style="rounded=1;whiteSpace=wrap;html=1;fontSize=12;glass=0;strokeWidth=1;shadow=0;" parent="WIyWlLk6GJQsqaUBKTNV-1" vertex="1">
          <mxGeometry x="635" y="415" width="120" height="40" as="geometry" />
        </mxCell>
        <mxCell id="QD-HZkgpxTLvtGoNFFKM-9" style="edgeStyle=none;curved=1;rounded=0;orthogonalLoop=1;jettySize=auto;html=1;exitX=0.5;exitY=1;exitDx=0;exitDy=0;entryX=0.5;entryY=0;entryDx=0;entryDy=0;endArrow=block;startSize=14;endSize=14;sourcePerimeterSpacing=8;targetPerimeterSpacing=8;endFill=0;" parent="WIyWlLk6GJQsqaUBKTNV-1" source="QD-HZkgpxTLvtGoNFFKM-0" target="WIyWlLk6GJQsqaUBKTNV-6" edge="1">
          <mxGeometry relative="1" as="geometry" />
        </mxCell>
        <mxCell id="QD-HZkgpxTLvtGoNFFKM-0" value="格式化得到的字符串并重新显示在输入框内" style="rounded=1;whiteSpace=wrap;html=1;" parent="WIyWlLk6GJQsqaUBKTNV-1" vertex="1">
          <mxGeometry x="282" y="270" width="132" height="60" as="geometry" />
        </mxCell>
        <mxCell id="QD-HZkgpxTLvtGoNFFKM-8" value="长度不足" style="edgeStyle=orthogonalEdgeStyle;rounded=0;html=1;jettySize=auto;orthogonalLoop=1;fontSize=11;endArrow=block;endFill=0;endSize=8;strokeWidth=1;shadow=0;labelBackgroundColor=none;exitX=0;exitY=0.5;exitDx=0;exitDy=0;spacing=0;spacingTop=8;entryX=1;entryY=0.5;entryDx=0;entryDy=0;" parent="WIyWlLk6GJQsqaUBKTNV-1" source="WIyWlLk6GJQsqaUBKTNV-6" target="QD-HZkgpxTLvtGoNFFKM-21" edge="1">
          <mxGeometry y="-15" relative="1" as="geometry">
            <mxPoint as="offset" />
            <mxPoint x="180" y="500" as="sourcePoint" />
            <mxPoint x="130" y="435" as="targetPoint" />
          </mxGeometry>
        </mxCell>
        <mxCell id="QD-HZkgpxTLvtGoNFFKM-16" style="edgeStyle=none;curved=1;rounded=0;orthogonalLoop=1;jettySize=auto;html=1;exitX=0.5;exitY=1;exitDx=0;exitDy=0;entryX=0.5;entryY=0;entryDx=0;entryDy=0;endArrow=block;startSize=14;endSize=8;sourcePerimeterSpacing=8;targetPerimeterSpacing=8;labelBackgroundColor=none;endFill=0;strokeWidth=1;shadow=0;" parent="WIyWlLk6GJQsqaUBKTNV-1" source="QD-HZkgpxTLvtGoNFFKM-11" target="QD-HZkgpxTLvtGoNFFKM-15" edge="1">
          <mxGeometry relative="1" as="geometry" />
        </mxCell>
        <mxCell id="QD-HZkgpxTLvtGoNFFKM-11" value="向/query/detailNumberInfo&#xa;发送GET请求" style="rounded=1;whiteSpace=wrap;" parent="WIyWlLk6GJQsqaUBKTNV-1" vertex="1">
          <mxGeometry x="268" y="570" width="160" height="90" as="geometry" />
        </mxCell>
        <mxCell id="QD-HZkgpxTLvtGoNFFKM-17" style="edgeStyle=none;curved=1;rounded=0;orthogonalLoop=1;jettySize=auto;html=1;exitX=0.5;exitY=1;exitDx=0;exitDy=0;entryX=1;entryY=0.5;entryDx=0;entryDy=0;endArrow=block;startSize=14;endSize=8;sourcePerimeterSpacing=8;targetPerimeterSpacing=8;labelBackgroundColor=none;endFill=0;strokeWidth=1;shadow=0;" parent="WIyWlLk6GJQsqaUBKTNV-1" source="QD-HZkgpxTLvtGoNFFKM-12" target="QD-HZkgpxTLvtGoNFFKM-15" edge="1">
          <mxGeometry relative="1" as="geometry">
            <Array as="points">
              <mxPoint x="590" y="740" />
            </Array>
          </mxGeometry>
        </mxCell>
        <mxCell id="QD-HZkgpxTLvtGoNFFKM-12" value="向&#xa;/query/belongingToTheOperator&#xa;发送GET请求&#xa;" style="rounded=1;" parent="WIyWlLk6GJQsqaUBKTNV-1" vertex="1">
          <mxGeometry x="592.5" y="570" width="205" height="70" as="geometry" />
        </mxCell>
        <mxCell id="QD-HZkgpxTLvtGoNFFKM-15" value="获取响应内容，&lt;br&gt;然后显示在页面中" style="rounded=1;whiteSpace=wrap;html=1;" parent="WIyWlLk6GJQsqaUBKTNV-1" vertex="1">
          <mxGeometry x="288" y="730" width="120" height="60" as="geometry" />
        </mxCell>
        <mxCell id="QD-HZkgpxTLvtGoNFFKM-20" style="edgeStyle=none;curved=1;rounded=0;orthogonalLoop=1;jettySize=auto;html=1;exitX=0.5;exitY=1;exitDx=0;exitDy=0;entryX=0.5;entryY=0;entryDx=0;entryDy=0;endArrow=block;startSize=14;endSize=8;sourcePerimeterSpacing=8;targetPerimeterSpacing=8;labelBackgroundColor=none;endFill=0;strokeWidth=1;shadow=0;" parent="WIyWlLk6GJQsqaUBKTNV-1" source="QD-HZkgpxTLvtGoNFFKM-18" target="QD-HZkgpxTLvtGoNFFKM-19" edge="1">
          <mxGeometry relative="1" as="geometry" />
        </mxCell>
        <mxCell id="QD-HZkgpxTLvtGoNFFKM-18" value="开始" style="ellipse;whiteSpace=wrap;html=1;" parent="WIyWlLk6GJQsqaUBKTNV-1" vertex="1">
          <mxGeometry x="320" y="90" width="55" height="30" as="geometry" />
        </mxCell>
        <mxCell id="QD-HZkgpxTLvtGoNFFKM-28" style="edgeStyle=none;curved=1;rounded=0;orthogonalLoop=1;jettySize=auto;html=1;exitX=0.5;exitY=1;exitDx=0;exitDy=0;entryX=0.5;entryY=0;entryDx=0;entryDy=0;endArrow=blockThin;startSize=14;endSize=14;sourcePerimeterSpacing=8;targetPerimeterSpacing=8;endFill=0;" parent="WIyWlLk6GJQsqaUBKTNV-1" source="QD-HZkgpxTLvtGoNFFKM-19" target="QD-HZkgpxTLvtGoNFFKM-0" edge="1">
          <mxGeometry relative="1" as="geometry" />
        </mxCell>
        <mxCell id="QD-HZkgpxTLvtGoNFFKM-19" value="在输入框&lt;br&gt;输入字符串" style="shape=parallelogram;perimeter=parallelogramPerimeter;whiteSpace=wrap;html=1;fixedSize=1;" parent="WIyWlLk6GJQsqaUBKTNV-1" vertex="1">
          <mxGeometry x="288" y="150" width="120" height="60" as="geometry" />
        </mxCell>
        <mxCell id="QD-HZkgpxTLvtGoNFFKM-22" style="edgeStyle=none;orthogonalLoop=1;jettySize=auto;html=1;exitX=0.5;exitY=0;exitDx=0;exitDy=0;entryX=0;entryY=0.5;entryDx=0;entryDy=0;endArrow=block;startSize=14;endSize=8;sourcePerimeterSpacing=8;targetPerimeterSpacing=8;labelBackgroundColor=none;endFill=0;strokeWidth=1;shadow=0;curved=1;" parent="WIyWlLk6GJQsqaUBKTNV-1" source="QD-HZkgpxTLvtGoNFFKM-21" target="QD-HZkgpxTLvtGoNFFKM-19" edge="1">
          <mxGeometry relative="1" as="geometry">
            <Array as="points">
              <mxPoint x="140" y="220" />
            </Array>
          </mxGeometry>
        </mxCell>
        <mxCell id="QD-HZkgpxTLvtGoNFFKM-21" value="没有动作" style="rounded=1;whiteSpace=wrap;html=1;" parent="WIyWlLk6GJQsqaUBKTNV-1" vertex="1">
          <mxGeometry x="90" y="418.75" width="70" height="32.5" as="geometry" />
        </mxCell>
        <mxCell id="QD-HZkgpxTLvtGoNFFKM-24" value="结束" style="ellipse;whiteSpace=wrap;html=1;" parent="WIyWlLk6GJQsqaUBKTNV-1" vertex="1">
          <mxGeometry x="320" y="820" width="55" height="30" as="geometry" />
        </mxCell>
        <mxCell id="QD-HZkgpxTLvtGoNFFKM-25" style="edgeStyle=none;curved=1;rounded=0;orthogonalLoop=1;jettySize=auto;html=1;exitX=0.5;exitY=1;exitDx=0;exitDy=0;entryX=0.5;entryY=0;entryDx=0;entryDy=0;endArrow=block;startSize=14;endSize=8;sourcePerimeterSpacing=8;targetPerimeterSpacing=8;labelBackgroundColor=none;endFill=0;strokeWidth=1;shadow=0;" parent="WIyWlLk6GJQsqaUBKTNV-1" source="QD-HZkgpxTLvtGoNFFKM-15" target="QD-HZkgpxTLvtGoNFFKM-24" edge="1">
          <mxGeometry relative="1" as="geometry">
            <mxPoint x="450" y="870" as="sourcePoint" />
            <mxPoint x="450" y="900" as="targetPoint" />
          </mxGeometry>
        </mxCell>
      </root>
    </mxGraphModel>
  </diagram>
</mxfile>
